<?xml version="1.0" encoding="UTF-8"?>
<svg version="1.1" xmlns="http://www.w3.org/2000/svg" width="96" height="96">
<path d="M0 0 C8.80288754 6.34043826 15.4186507 14.72648904 17.58203125 25.4921875 C18.92007691 37.90936834 17.85729499 48.88109459 10.39453125 59.2421875 C3.58210875 67.3274193 -4.72289951 73.55522767 -15.48876953 74.71533203 C-28.40007937 75.61089799 -39.16843729 74.04490094 -49.3515625 65.46484375 C-57.86959925 57.33325857 -62.42046403 48.68416257 -62.88867188 36.85693359 C-63.04371176 24.34263074 -60.22647828 14.71931927 -51.41796875 5.4921875 C-37.63784493 -7.66275112 -16.31305228 -10.17259803 0 0 Z " fill="#3892D9" transform="translate(70.41796875,13.5078125)"/>
<path d="M0 0 C2.0625 0.4375 2.0625 0.4375 4 1 C3.67 2.65 3.34 4.3 3 6 C4.0828125 5.01 4.0828125 5.01 5.1875 4 C8.21597933 1.8464147 9.39703406 1.58823246 13 2 C13.495 3.98 13.495 3.98 14 6 C12.02 5.67 10.04 5.34 8 5 C7.67 6.98 7.34 8.96 7 11 C7.61875 10.34 8.2375 9.68 8.875 9 C11 7 11 7 13 7 C13 9.31 13 11.62 13 14 C6.25 13.25 6.25 13.25 4 11 C4 10.01 4 9.02 4 8 C3.2575 8.45375 2.515 8.9075 1.75 9.375 C-0.46930578 10.68640796 -2.67967822 11.88280803 -5 13 C-5 12.34 -5 11.68 -5 11 C-5.5775 11.350625 -6.155 11.70125 -6.75 12.0625 C-9.35801776 13.14917407 -10.39417629 12.93065133 -13 12 C-13 10.02 -13 8.04 -13 6 C-15.22189824 8.22189824 -15.92598892 10.08482708 -17 13 C-17.66 13 -18.32 13 -19 13 C-20.39195915 8.82412255 -18.82323219 6.86525224 -17 3 C-15.68 3 -14.36 3 -13 3 C-11.68 2.67 -10.36 2.34 -9 2 C-9.33 4.97 -9.66 7.94 -10 11 C-6.35996939 8.57331293 -6.28839527 7.03697185 -5 3 C-4.34 2.67 -3.68 2.34 -3 2 C-2.67 4.31 -2.34 6.62 -2 9 C-0.86165035 6.11199733 -0.86165035 6.11199733 -1 3.375 C-1 1 -1 1 0 0 Z " fill="#E0E3FA" transform="translate(64,44)"/>
<path d="M0 0 C2 2 2 2 2.25 4.5 C2 7 2 7 0 9 C-0.99 8.67 -1.98 8.34 -3 8 C-2.34 5.69 -1.68 3.38 -1 1 C-4.8544534 1.88101792 -6.63963497 3.45882525 -8.8125 6.625 C-11.34034608 10.98911163 -11.5907734 14.02062423 -11 19 C-10.34 19.99 -9.68 20.98 -9 22 C-3.98464948 21.67039784 -3.98464948 21.67039784 0 19 C0.309375 18.175 0.61875 17.35 0.9375 16.5 C2 14 2 14 5 12 C7.6875 12.375 7.6875 12.375 10 13 C10 13.99 10 14.98 10 16 C9.34 16 8.68 16 8 16 C8 15.34 8 14.68 8 14 C6.02 14.99 6.02 14.99 4 16 C4 17.32 4 18.64 4 20 C4.66 20.33 5.32 20.66 6 21 C6.66 19.68 7.32 18.36 8 17 C8.12375 17.639375 8.2475 18.27875 8.375 18.9375 C8.58125 19.618125 8.7875 20.29875 9 21 C9.66 21.33 10.32 21.66 11 22 C6.915021 22.54466387 3.1274515 23 -1 23 C-1.61875 23.33 -2.2375 23.66 -2.875 24 C-5.79315647 25.3732501 -7.81116845 25.39860394 -11 25 C-13.375 23.6875 -13.375 23.6875 -15 21 C-15.81363935 15.67813446 -15.70868023 11.39205045 -13.25 6.5625 C-12.5075 5.716875 -11.765 4.87125 -11 4 C-10.401875 3.21625 -9.80375 2.4325 -9.1875 1.625 C-6.06376962 -0.69548543 -3.78661451 -0.42073495 0 0 Z " fill="#E7F5FA" transform="translate(33,34)"/>
<path d="M0 0 C0.99 0.33 1.98 0.66 3 1 C5.14255793 0.61067144 5.14255793 0.61067144 7 0 C6.25 6.75 6.25 6.75 4 9 C3.67 7.35 3.34 5.7 3 4 C0.77810176 6.22189824 0.07401108 8.08482708 -1 11 C-1.66 11 -2.32 11 -3 11 C-4.3968009 6.80959731 -2.86445675 4.87233324 -1 1 C-0.67 0.67 -0.34 0.34 0 0 Z " fill="#DCE9F8" transform="translate(48,46)"/>
<path d="M0 0 C2 2 2 2 2.25 4.5 C2 7 2 7 0 9 C-0.99 8.67 -1.98 8.34 -3 8 C-2.34 5.69 -1.68 3.38 -1 1 C-4.98363358 2.32787786 -7.10630834 4.00985195 -10 7 C-10.99 7.33 -11.98 7.66 -13 8 C-10.19934655 1.46514195 -7.24236363 -0.80470707 0 0 Z " fill="#DFF7F8" transform="translate(33,34)"/>
<path d="M0 0 C0.99 0 1.98 0 3 0 C3 0.66 3 1.32 3 2 C3.66 2 4.32 2 5 2 C5 2.99 5 3.98 5 5 C5.66 5.33 6.32 5.66 7 6 C6.01 6.33 5.02 6.66 4 7 C3.67 6.01 3.34 5.02 3 4 C2.01 5.485 2.01 5.485 1 7 C0.01 6.67 -0.98 6.34 -2 6 C-1.125 1.125 -1.125 1.125 0 0 Z " fill="#4FA4DC" transform="translate(38,48)"/>
<path d="M0 0 C2.0625 0.4375 2.0625 0.4375 4 1 C3.01 2.98 2.02 4.96 1 7 C0.34 7 -0.32 7 -1 7 C-1.04254356 5.00045254 -1.04080783 2.99958364 -1 1 C-0.67 0.67 -0.34 0.34 0 0 Z " fill="#6064E6" transform="translate(72,48)"/>
<path d="M0 0 C1.485 0.99 1.485 0.99 3 2 C3 2.66 3 3.32 3 4 C4.32 3.34 5.64 2.68 7 2 C7.33 2.66 7.66 3.32 8 4 C5.64561267 5.42944945 4.51967567 6.08661261 1.75 5.625 C1.1725 5.41875 0.595 5.2125 0 5 C0 3.35 0 1.7 0 0 Z " fill="#CCD7F6" transform="translate(51,51)"/>
<path d="M0 0 C0.66 0 1.32 0 2 0 C2.33 1.98 2.66 3.96 3 6 C2.01 6.66 1.02 7.32 0 8 C0 5.36 0 2.72 0 0 Z " fill="#607CE4" transform="translate(61,46)"/>
<path d="M0 0 C0.66 0 1.32 0 2 0 C1.25 6.75 1.25 6.75 -1 9 C-1.09765625 2.84765625 -1.09765625 2.84765625 -1 1 C-0.67 0.67 -0.34 0.34 0 0 Z " fill="#F9FBFD" transform="translate(53,46)"/>
</svg>
