<?xml version="1.0" encoding="UTF-8"?>
<svg version="1.1" xmlns="http://www.w3.org/2000/svg" width="96" height="96">
<path d="M0 0 C-1.0828125 0.804375 -1.0828125 0.804375 -2.1875 1.625 C-9.81719879 8.06785675 -13.41034135 14.95450976 -14.38671875 24.96484375 C-15.16003797 43.57391144 -7.79739231 60.442984 0 77 C-0.12044678 76.39994141 -0.24089355 75.79988281 -0.36499023 75.18164062 C-1.61238548 68.9573008 -2.85207054 62.73164063 -4.0625 56.5 C-4.23587891 55.62730469 -4.40925781 54.75460938 -4.58789062 53.85546875 C-7.5060601 38.76148872 -10.55355969 18.67654883 -2.67578125 4.640625 C-0.33382655 1.56719364 1.25885493 0.21616731 5 -0.875 C8.72568661 0.21165859 10.33518827 1.51095475 12.67578125 4.5703125 C22.8835066 23.29953129 16.11101944 51.55505665 10.76953125 70.98046875 C9.87652123 73.96517203 9.87652123 73.96517203 10 77 C24.06804623 47.06284688 24.06804623 47.06284688 22.375 14.875 C19.70728219 8.65032511 15.68757095 3.71879639 10 0 C17.39210299 0.31455757 22.80363973 3.57921444 27.8359375 8.96484375 C33.6408018 16.34126888 34.90379189 23.61945511 34.26904297 32.91748047 C33.42447831 39.45480942 31.1079694 45.78149028 29 52 C29.81542431 49.91780951 30.62723189 47.83420239 31.4375 45.75 C31.88996094 44.58984375 32.34242187 43.4296875 32.80859375 42.234375 C35.72285222 34.32287988 36.61844951 25.1508331 34.05859375 17.00390625 C31.68295605 12.11113518 28.67562827 7.99068213 25 4 C29.13237764 5.3486119 31.34731405 7.04381405 34.1875 10.3125 C34.86167969 11.07175781 35.53585938 11.83101562 36.23046875 12.61328125 C41.16333502 19.26666159 40.89599387 27.06759472 40 35 C36.63164195 50.71355382 27.85093798 65.30326648 17 77 C16.46632812 77.57621094 15.93265625 78.15242188 15.3828125 78.74609375 C12.18936392 81.79281632 9.23262881 82.80616889 4.94140625 83.05859375 C0.15981826 82.91428023 -2.86675581 81.37244245 -6.3125 78.1875 C-20.02107175 63.51268531 -30.87752961 43.60696348 -30.34375 23.234375 C-29.55902226 15.85080039 -25.91318961 11.46793236 -20.78125 6.34765625 C-18.84727188 4.88444912 -17.3703144 4.41064657 -15 4 C-15.38671875 4.4846875 -15.7734375 4.969375 -16.171875 5.46875 C-17.83584266 7.61049055 -19.42905468 9.78918183 -21 12 C-21.63808594 12.88365234 -21.63808594 12.88365234 -22.2890625 13.78515625 C-26.49627946 20.6710689 -26.30869206 29.4710589 -24.49169922 37.14746094 C-23.23244657 41.5246271 -21.68048489 45.76877913 -20 50 C-21.00292104 46.46449265 -22.01827311 42.94213515 -23.125 39.4375 C-25.14748603 31.05396922 -25.36997976 21.68721809 -21.25390625 13.95703125 C-16.35685459 6.31396932 -9.714006 -0.5633782 0 0 Z M-18 54 C-17 56 -17 56 -17 56 Z M27 54 C28 56 28 56 28 56 Z M-17 56 C-16 58 -16 58 -16 58 Z M26 56 C27 58 27 58 27 58 Z M-16 58 C-15 60 -15 60 -15 60 Z M25 58 C26 60 26 60 26 60 Z M-15 60 C-14 62 -14 62 -14 62 Z M24 60 C25 62 25 62 25 62 Z M1 78 C2 80 2 80 2 80 Z M8 78 C9 80 9 80 9 80 Z " fill="#BCD80E" transform="translate(43,0)"/>
<path d="M0 0 C3.72568661 1.08665859 5.33518827 2.38595475 7.67578125 5.4453125 C13.26794526 15.70586122 13.86169944 31.68688692 11 42.875 C9.51171875 44.265625 9.51171875 44.265625 7.6875 45.125 C7.0584375 45.43953125 6.429375 45.7540625 5.78125 46.078125 C4.42092453 46.68669166 3.05533451 47.283504 1.6875 47.875 C-0.50376914 49.17352986 -0.93559283 50.6042647 -2 52.875 C-2.99 53.535 -3.98 54.195 -5 54.875 C-9.30083569 51.81914306 -10.42878439 49.26158599 -11.3125 44.0625 C-12.81939827 31.23937529 -14.47107125 14.43332842 -6.1875 3.5625 C-4.02509981 1.43213537 -3.00254201 0.87574142 0 0 Z " fill="#00933E" transform="translate(48,-0.875)"/>
<path d="M0 0 C-1.0828125 0.804375 -1.0828125 0.804375 -2.1875 1.625 C-9.81719879 8.06785675 -13.41034135 14.95450976 -14.38671875 24.96484375 C-14.83525844 35.85543767 -12.55143465 45.18699436 -9.18359375 55.5 C-8.09248542 59.12330313 -7.91071822 60.7589392 -9.25 64.375 C-11 67 -11 67 -13 69 C-23.79221108 56.0493467 -30.78873328 40.21790342 -30.34375 23.234375 C-29.55902226 15.85080039 -25.91318961 11.46793236 -20.78125 6.34765625 C-18.84727188 4.88444912 -17.3703144 4.41064657 -15 4 C-15.38671875 4.4846875 -15.7734375 4.969375 -16.171875 5.46875 C-17.83584266 7.61049055 -19.42905468 9.78918183 -21 12 C-21.63808594 12.88365234 -21.63808594 12.88365234 -22.2890625 13.78515625 C-26.49627946 20.6710689 -26.30869206 29.4710589 -24.49169922 37.14746094 C-23.23244657 41.5246271 -21.68048489 45.76877913 -20 50 C-21.00292104 46.46449265 -22.01827311 42.94213515 -23.125 39.4375 C-25.14748603 31.05396922 -25.36997976 21.68721809 -21.25390625 13.95703125 C-16.35685459 6.31396932 -9.714006 -0.5633782 0 0 Z M-18 54 C-17 56 -17 56 -17 56 Z M-17 56 C-16 58 -16 58 -16 58 Z M-16 58 C-15 60 -15 60 -15 60 Z M-15 60 C-14 62 -14 62 -14 62 Z " fill="#9A214E" transform="translate(43,0)"/>
<path d="M0 0 C-0.92539913 9.15658087 -2.27057242 17.96387327 -4.67871094 26.85742188 C-5.44076604 29.67803413 -6 32.06021501 -6 35 C-5.01 34.01 -4.02 33.02 -3 32 C-2.34 33.65 -1.68 35.3 -1 37 C-4.50639664 40.36029678 -8.28796748 40.97255127 -13 41 C-18.96716001 40.02576979 -22.17683383 36.37752527 -26 32 C-26.721875 31.195625 -27.44375 30.39125 -28.1875 29.5625 C-29.19696346 26.37880754 -28.62583668 25.61554253 -27.1875 22.6875 C-26.47867881 21.44648943 -25.75556504 20.21311837 -25 19 C-21.7892581 21.67079731 -20.49022748 24.92193387 -18.8125 28.6875 C-18.28269531 29.86699219 -17.75289062 31.04648438 -17.20703125 32.26171875 C-16.80871094 33.16535156 -16.41039062 34.06898437 -16 35 C-16.10957031 34.45214844 -16.21914063 33.90429688 -16.33203125 33.33984375 C-16.67392832 31.63035841 -17.01498499 29.92070489 -17.35546875 28.2109375 C-17.8313939 25.83996493 -18.31420223 23.4703716 -18.80078125 21.1015625 C-18.93701904 20.43390869 -19.07325684 19.76625488 -19.21362305 19.07836914 C-19.61201977 17.12610696 -20.0129978 15.17437209 -20.4140625 13.22265625 C-21 10 -21 10 -21 7 C-18.00667261 7.9977758 -17.05233685 8.7522025 -15 11 C-14.505 10.29875 -14.01 9.5975 -13.5 8.875 C-9.9518245 4.79459817 -5.64850024 0 0 0 Z M-15 36 C-14 38 -14 38 -14 38 Z M-8 36 C-7 38 -7 38 -7 38 Z " fill="#FE6D00" transform="translate(59,42)"/>
<path d="M0 0 C7.39210299 0.31455757 12.80363973 3.57921444 17.8359375 8.96484375 C24.18801798 17.03663382 24.85088062 24.94320616 24 35 C23.15155632 39.79376548 21.95377176 44.5370364 20 49 C17 50 17 50 14.8125 49.0625 C13.9153125 48.5365625 13.9153125 48.5365625 13 48 C13.165 46.700625 13.33 45.40125 13.5 44.0625 C14.77035505 30.71429172 16.00993223 17.02230288 7 6 C4.85005497 3.72455057 2.62978057 1.71947191 0 0 Z " fill="#00933D" transform="translate(53,0)"/>
<path d="M0 0 C-1.0828125 0.804375 -1.0828125 0.804375 -2.1875 1.625 C-8.66066725 7.09123013 -12.2606176 12.64526161 -14 21 C-14.44406951 26.99558577 -14.2376586 32.99912036 -14 39 C-17.59792553 37.66362766 -20.97736642 36.3904835 -24 34 C-25.71667485 26.30161961 -24.15641677 18.60365281 -20 12 C-15.39251423 5.08176908 -8.64209973 -0.50121141 0 0 Z " fill="#01933F" transform="translate(43,0)"/>
<path d="M0 0 C8.13801789 1.89046876 15.10178478 5.2837573 22 10 C22.33 10.66 22.66 11.32 23 12 C21.9275 12.61875 20.855 13.2375 19.75 13.875 C19.11191406 14.24367188 18.47382812 14.61234375 17.81640625 14.9921875 C16 16 16 16 13.6875 17 C11.49623086 18.29852986 11.06440717 19.7292647 10 22 C9.01 22.66 8.02 23.32 7 24 C3.61449634 21.59451056 2.27582697 20.07004232 1.22265625 15.984375 C0.38343083 10.61823293 -0.09016159 5.43428502 0 0 Z " fill="#2BC449" transform="translate(36,30)"/>
<path d="M0 0 C-0.98608089 9.24595846 -2.17079464 18.0974338 -5 27 C-7.77218895 24.34256397 -10.13115654 21.66105355 -12.3125 18.5 C-12.84488281 17.7471875 -13.37726562 16.994375 -13.92578125 16.21875 C-15 14 -15 14 -14.8046875 11.87109375 C-13.52405946 8.89332272 -11.3783877 7.16697546 -9 5 C-8.48566406 4.52820312 -7.97132812 4.05640625 -7.44140625 3.5703125 C-3.39706921 0 -3.39706921 0 0 0 Z " fill="#BDD50E" transform="translate(59,42)"/>
<path d="M0 0 C1.68272986 0.62501395 3.34630643 1.30177383 5 2 C6.28583984 2.50080078 6.28583984 2.50080078 7.59765625 3.01171875 C11.39387007 6.1536258 12.1356063 10.17802343 13.4375 14.8125 C13.71787109 15.70259766 13.99824219 16.59269531 14.28710938 17.50976562 C15.77524267 22.59202337 16.60695662 26.07927034 14 31 C13.34 31.33 12.68 31.66 12 32 C6.70569107 21.50133399 2.54616228 11.50798346 0 0 Z " fill="#9A214F" transform="translate(19,34)"/>
<path d="M0 0 C4.13237764 1.3486119 6.34731405 3.04381405 9.1875 6.3125 C9.86167969 7.07175781 10.53585938 7.83101562 11.23046875 8.61328125 C16.15613464 15.25694982 15.97642306 23.02836291 15 31 C12.0238546 44.93377164 12.0238546 44.93377164 7 49 C6.34 48.67 5.68 48.34 5 48 C5.19335938 47.35933594 5.38671875 46.71867187 5.5859375 46.05859375 C5.97652344 44.76115234 5.97652344 44.76115234 6.375 43.4375 C6.75785156 42.16712891 6.75785156 42.16712891 7.1484375 40.87109375 C7.42945312 39.92363281 7.71046875 38.97617187 8 38 C8.35449219 36.88367187 8.70898438 35.76734375 9.07421875 34.6171875 C11.40733839 25.50128546 11.24319557 16.30889042 6.4453125 8.09765625 C4.45485705 5.20880604 2.37776366 2.58157198 0 0 Z " fill="#00943D" transform="translate(68,4)"/>
<path d="M0 0 C5.28 0 10.56 0 16 0 C15.34 2.97 14.68 5.94 14 9 C10.04 9 6.08 9 2 9 C1.34 6.03 0.68 3.06 0 0 Z " fill="#5F7C8B" transform="translate(40,87)"/>
<path d="M0 0 C2.875 2.3125 2.875 2.3125 5 5 C5 5.99 5 6.98 5 8 C-0.61 8 -6.22 8 -12 8 C-6.56934307 -1.05109489 -6.56934307 -1.05109489 0 0 Z " fill="#2195EF" transform="translate(51,0)"/>
<path d="M0 0 C-0.28427417 1.58467728 -0.57774818 3.1677057 -0.875 4.75 C-1.03742188 5.63171875 -1.19984375 6.5134375 -1.3671875 7.421875 C-1.96796264 9.86947744 -2.77997117 11.80599857 -4 14 C-5.98 13.34 -7.96 12.68 -10 12 C-9.67 8.7 -9.34 5.4 -9 2 C-3.375 0 -3.375 0 0 0 Z " fill="#4AAE4F" transform="translate(76,36)"/>
<path d="M0 0 C4.455 0.99 4.455 0.99 9 2 C9.33 5.96 9.66 9.92 10 14 C7.525 13.01 7.525 13.01 5 12 C4.071875 11.649375 3.14375 11.29875 2.1875 10.9375 C0 9 0 9 -0.3125 6.8046875 C-0.3125 4.53406771 -0.16410737 2.26468166 0 0 Z " fill="#2BC24A" transform="translate(19,25)"/>
<path d="M0 0 C-0.70125 0.515625 -1.4025 1.03125 -2.125 1.5625 C-4.44531721 3.52972546 -6.02439287 5.21441783 -7.875 7.5625 C-10.90193528 11.19951526 -13.47502891 12.63397099 -18 14 C-18.99 13.67 -19.98 13.34 -21 13 C-15.57764956 5.9736102 -9.46417529 -0.53132212 0 0 Z " fill="#91CAF6" transform="translate(43,0)"/>
<path d="M0 0 C1.32 0 2.64 0 4 0 C2.89061647 6.30596952 1.06802099 11.37529486 -2 17 C-2.99 16.67 -3.98 16.34 -5 16 C-3.41078475 10.63904723 -1.81027062 5.29156027 0 0 Z " fill="#4BB04D" transform="translate(78,36)"/>
<path d="M0 0 C6.55711013 0.27902596 10.95290044 2.86775148 16 7 C16.99 8.485 16.99 8.485 18 10 C10.5108301 9.86626482 7.16356997 7.24841737 2 2 C1.34 1.34 0.68 0.68 0 0 Z " fill="#1E98F0" transform="translate(53,0)"/>
<path d="M0 0 C0.66 0.33 1.32 0.66 2 1 C1.52949219 1.50789062 1.05898438 2.01578125 0.57421875 2.5390625 C-2.29345136 5.70953007 -4.73091684 8.45148434 -6.625 12.3125 C-8.25289602 15.49429677 -9.83192782 16.45877569 -13 18 C-11.87145337 10.58383641 -7.250995 6.11384214 -2 1 C-1.34 0.67 -0.68 0.34 0 0 Z " fill="#93CBF5" transform="translate(26,4)"/>
<path d="M0 0 C0.66 0.33 1.32 0.66 2 1 C1.67 4.96 1.34 8.92 1 13 C-0.32 12.67 -1.64 12.34 -3 12 C-3.08131463 10.56344146 -3.13933559 9.1255517 -3.1875 7.6875 C-3.22230469 6.88699219 -3.25710938 6.08648437 -3.29296875 5.26171875 C-2.93801608 2.52148416 -2.10633718 1.70828921 0 0 Z " fill="#2AC34A" transform="translate(16,19)"/>
<path d="M0 0 C-3.33333333 2.66666667 -6.66666667 5.33333333 -10 8 C-10.99 7.01 -11.98 6.02 -13 5 C-4.738041 -0.74031891 -4.738041 -0.74031891 0 0 Z " fill="#2098F3" transform="translate(43,0)"/>
<path d="M0 0 C5.01113235 1.4317521 6.94469549 3.98445693 10 8 C8.68 8 7.36 8 6 8 C4.296875 6.25 4.296875 6.25 2.75 4 C2.22921875 3.2575 1.7084375 2.515 1.171875 1.75 C0.78515625 1.1725 0.3984375 0.595 0 0 Z " fill="#1E9AEF" transform="translate(68,4)"/>
<path d="M0 0 C0.66 0.33 1.32 0.66 2 1 C1.67 2.65 1.34 4.3 1 6 C-0.32 5.67 -1.64 5.34 -3 5 C-1.125 1.125 -1.125 1.125 0 0 Z " fill="#03963E" transform="translate(16,19)"/>
</svg>
